<?xml version="1.0" encoding="UTF-8"?>
<svg xmlns="http://www.w3.org/2000/svg" xmlns:xlink="http://www.w3.org/1999/xlink" width="87px" height="100px" viewBox="0 0 87 100" version="1.1">
<g id="surface1">
<path style=" stroke:none;fill-rule:evenodd;fill:rgb(98.039216%,64.313725%,18.431373%);fill-opacity:1;" d="M 0.359375 75.164062 L 0.359375 74.808594 L 0 74.628906 L 0 74.984375 Z M 0.359375 75.164062 "/>
<path style=" stroke:none;fill-rule:evenodd;fill:rgb(86.666667%,69.019608%,16.470588%);fill-opacity:1;" d="M 0 62.550781 L 0.359375 62.3125 L 0.359375 56.125 L 0 55.949219 Z M 0 62.550781 "/>
<path style=" stroke:none;fill-rule:evenodd;fill:rgb(76.862745%,46.666667%,15.686275%);fill-opacity:1;" d="M 0 74.628906 L 0.359375 74.808594 L 4.664062 72.308594 L 4.664062 64.8125 L 0.359375 62.3125 L 0 62.550781 Z M 0 74.628906 "/>
<path style=" stroke:none;fill-rule:evenodd;fill:rgb(94.509804%,34.901961%,20%);fill-opacity:1;" d="M 10.824219 81.230469 L 11.179688 80.996094 L 16.5625 84.148438 L 16.5625 84.503906 Z M 10.824219 81.230469 "/>
<path style=" stroke:none;fill-rule:evenodd;fill:rgb(95.294118%,44.313725%,19.607843%);fill-opacity:1;" d="M 10.824219 81.230469 L 11.179688 80.996094 L 11.179688 76.058594 L 4.664062 72.308594 L 0.359375 74.808594 L 0.359375 75.164062 Z M 10.824219 81.230469 "/>
<path style=" stroke:none;fill-rule:evenodd;fill:rgb(83.921569%,87.843137%,25.882353%);fill-opacity:1;" d="M 0 43.875 L 0.359375 43.695312 L 0.359375 37.449219 L 0 37.269531 Z M 0 43.875 "/>
<path style=" stroke:none;fill-rule:evenodd;fill:rgb(98.823529%,91.764706%,23.137255%);fill-opacity:1;" d="M 0 55.949219 L 0.359375 56.125 L 4.125 53.984375 C 3.953125 52.664062 3.875 51.332031 3.886719 50 C 3.886719 48.628906 4.007812 47.203125 4.125 45.835938 L 0.359375 43.691406 L 0 43.871094 Z M 0 55.949219 "/>
<path style=" stroke:none;fill-rule:evenodd;fill:rgb(98.039216%,64.313725%,18.431373%);fill-opacity:1;" d="M 0.359375 62.375 L 4.664062 64.8125 L 11.179688 61.125 L 11.179688 56.125 L 8.011719 54.285156 C 8.070312 55.175781 8.25 56.066406 8.429688 56.960938 L 4.960938 58.980469 C 4.539062 57.34375 4.257812 55.667969 4.125 53.984375 L 0.359375 56.125 Z M 0.359375 62.375 "/>
<path style=" stroke:none;fill-rule:evenodd;fill:rgb(94.509804%,34.901961%,20%);fill-opacity:1;" d="M 11.179688 80.996094 L 11.179688 76.058594 L 12.914062 75.046875 L 12.855469 74.988281 C 13.691406 75.996094 14.589844 76.949219 15.484375 77.839844 C 16.988281 79.335938 18.609375 80.707031 20.328125 81.945312 L 16.5625 84.148438 Z M 17.636719 72.308594 L 22.003906 74.808594 L 22.003906 78.4375 C 20.652344 77.457031 19.394531 76.363281 18.234375 75.164062 C 17.53125 74.515625 16.875 73.820312 16.261719 73.082031 Z M 17.636719 72.308594 "/>
<path style=" stroke:none;fill-rule:evenodd;fill:rgb(88.627451%,14.509804%,45.490196%);fill-opacity:1;" d="M 32.828125 93.84375 L 32.828125 93.425781 L 27.386719 90.335938 L 27.085938 90.515625 Z M 32.828125 93.84375 "/>
<path style=" stroke:none;fill-rule:evenodd;fill:rgb(93.72549%,21.960784%,22.352941%);fill-opacity:1;" d="M 27.085938 90.515625 L 27.386719 90.335938 L 27.386719 85.992188 C 24.894531 84.902344 22.527344 83.546875 20.328125 81.949219 L 16.5625 84.152344 L 16.5625 84.507812 Z M 27.085938 90.515625 "/>
<path style=" stroke:none;fill-rule:evenodd;fill:rgb(73.333333%,83.921569%,29.411765%);fill-opacity:1;" d="M 0 25.191406 L 0.359375 25.015625 L 0.359375 24.835938 L 0 25.015625 Z M 0 25.191406 "/>
<path style=" stroke:none;fill-rule:evenodd;fill:rgb(83.921569%,87.843137%,25.882353%);fill-opacity:1;" d="M 0 37.269531 L 0.359375 37.449219 L 5.738281 34.355469 L 5.738281 28.109375 L 0.359375 25.015625 L 0 25.191406 Z M 0 37.269531 "/>
<path style=" stroke:none;fill-rule:evenodd;fill:rgb(100%,81.176471%,16.078431%);fill-opacity:1;" d="M 0.359375 43.691406 L 4.125 45.832031 C 4.539062 42.117188 5.464844 38.472656 6.875 35.007812 L 5.738281 34.355469 L 0.359375 37.449219 Z M 8.011719 45.476562 L 11.179688 43.691406 L 11.179688 37.449219 L 10.222656 36.910156 C 9.121094 39.660156 8.378906 42.542969 8.007812 45.480469 Z M 8.011719 45.476562 "/>
<path style=" stroke:none;fill-rule:evenodd;fill:rgb(98.039216%,64.313725%,18.431373%);fill-opacity:1;" d="M 8.011719 54.285156 L 11.179688 56.125 L 16.5625 53.035156 L 16.5625 46.789062 L 11.179688 43.691406 L 8.011719 45.476562 C 7.820312 46.976562 7.722656 48.484375 7.714844 49.996094 C 7.722656 51.429688 7.820312 52.859375 8.011719 54.28125 Z M 8.011719 54.285156 "/>
<path style=" stroke:none;fill-rule:evenodd;fill:rgb(94.509804%,34.901961%,20%);fill-opacity:1;" d="M 17.636719 64.8125 L 21.40625 62.671875 L 27.386719 66.121094 L 27.386719 71.652344 L 22.003906 74.808594 L 17.636719 72.308594 Z M 17.636719 64.8125 "/>
<path style=" stroke:none;fill-rule:evenodd;fill:rgb(93.333333%,26.27451%,55.294118%);fill-opacity:1;" d="M 27.386719 90.335938 L 32.828125 93.425781 L 38.269531 90.335938 L 38.269531 89.085938 C 34.441406 88.554688 30.792969 87.539062 27.386719 85.992188 Z M 38.269531 85.21875 L 38.269531 84.148438 L 32.828125 80.996094 L 29.65625 82.839844 C 32.410156 84.003906 35.304688 84.804688 38.269531 85.21875 Z M 38.269531 85.21875 "/>
<path style=" stroke:none;fill-rule:evenodd;fill:rgb(95.294118%,44.313725%,19.607843%);fill-opacity:1;" d="M 17.636719 64.8125 L 21.40625 62.671875 L 21.40625 55.769531 L 16.5625 53.035156 L 11.179688 56.125 L 11.179688 61.125 Z M 17.636719 64.8125 "/>
<path style=" stroke:none;fill-rule:evenodd;fill:rgb(80%,19.215686%,57.254902%);fill-opacity:1;" d="M 43.289062 99.851562 L 43.652344 99.675781 L 43.652344 93.425781 L 38.269531 90.335938 L 32.828125 93.425781 L 32.828125 93.84375 Z M 43.289062 99.851562 "/>
<path style=" stroke:none;fill-rule:evenodd;fill:rgb(74.117647%,12.54902%,14.509804%);fill-opacity:1;" d="M 29.65625 82.839844 L 32.828125 80.996094 L 32.828125 74.808594 L 27.382812 71.652344 L 22 74.808594 L 22 78.4375 C 24.347656 80.230469 26.921875 81.710938 29.65625 82.839844 Z M 29.65625 82.839844 "/>
<path style=" stroke:none;fill-rule:evenodd;fill:rgb(60.784314%,22.352941%,58.431373%);fill-opacity:1;" d="M 43.828125 99.792969 L 43.652344 99.675781 L 43.289062 99.851562 L 43.53125 99.972656 Z M 43.828125 99.792969 "/>
<path style=" stroke:none;fill-rule:evenodd;fill:rgb(94.509804%,92.156863%,34.901961%);fill-opacity:1;" d="M 0.359375 25.015625 L 5.738281 28.109375 L 11.179688 25.015625 L 11.179688 18.765625 L 11.003906 18.707031 L 0.359375 24.835938 Z M 0.359375 25.015625 "/>
<path style=" stroke:none;fill-rule:evenodd;fill:rgb(98.823529%,91.764706%,23.137255%);fill-opacity:1;" d="M 5.738281 34.355469 L 6.875 35.007812 C 8.25 31.617188 10.105469 28.519531 12.320312 25.667969 L 11.183594 25.015625 L 5.738281 28.109375 Z M 10.222656 36.90625 L 11.183594 37.445312 L 16.5625 34.351562 L 16.5625 28.109375 L 15.667969 27.632812 C 13.40625 30.441406 11.574219 33.570312 10.222656 36.910156 Z M 10.222656 36.90625 "/>
<path style=" stroke:none;fill-rule:evenodd;fill:rgb(98.039216%,64.313725%,18.431373%);fill-opacity:1;" d="M 11.179688 43.695312 L 16.5625 46.789062 L 21.40625 43.992188 L 21.40625 37.328125 L 21.585938 37.210938 L 16.5625 34.355469 L 11.179688 37.449219 Z M 11.179688 43.695312 "/>
<path style=" stroke:none;fill-rule:evenodd;fill:rgb(88.627451%,14.509804%,45.490196%);fill-opacity:1;" d="M 32.828125 80.996094 L 38.269531 84.148438 L 43.652344 80.996094 L 43.652344 75.285156 L 43.53125 75.34375 L 37.671875 72.011719 L 32.828125 74.808594 Z M 32.828125 80.996094 "/>
<path style=" stroke:none;fill-rule:evenodd;fill:rgb(96.862745%,59.215686%,37.254902%);fill-opacity:1;" d="M 16.5625 53.035156 L 21.40625 55.769531 L 21.40625 43.992188 L 16.5625 46.789062 Z M 16.5625 53.035156 "/>
<path style=" stroke:none;fill-rule:evenodd;fill:rgb(80%,19.215686%,57.254902%);fill-opacity:1;" d="M 38.269531 90.335938 L 43.648438 93.425781 L 49.089844 90.335938 L 49.089844 89.027344 C 47.246094 89.261719 45.390625 89.382812 43.53125 89.382812 C 41.773438 89.375 40.015625 89.277344 38.269531 89.085938 Z M 49.089844 85.15625 L 49.089844 84.148438 L 43.648438 80.996094 L 38.265625 84.148438 L 38.265625 85.21875 C 40.011719 85.457031 41.769531 85.578125 43.527344 85.574219 C 45.390625 85.582031 47.25 85.445312 49.089844 85.15625 Z M 49.089844 85.15625 "/>
<path style=" stroke:none;fill-rule:evenodd;fill:rgb(82.745098%,12.156863%,14.901961%);fill-opacity:1;" d="M 27.386719 71.652344 L 32.828125 74.808594 L 37.671875 72.011719 L 27.386719 66.121094 Z M 27.386719 71.652344 "/>
<path style=" stroke:none;fill-rule:evenodd;fill:rgb(45.098039%,12.54902%,41.568627%);fill-opacity:1;" d="M 43.652344 99.675781 L 43.828125 99.792969 L 54.472656 93.664062 L 54.472656 93.425781 L 49.089844 90.335938 L 43.652344 93.425781 Z M 43.652344 99.675781 "/>
<path style=" stroke:none;fill-rule:evenodd;fill:rgb(83.921569%,87.843137%,25.882353%);fill-opacity:1;" d="M 11.003906 18.707031 L 11.179688 18.765625 L 16.5625 15.675781 L 16.5625 15.496094 Z M 11.003906 18.707031 "/>
<path style=" stroke:none;fill-rule:evenodd;fill:rgb(100%,81.176471%,16.078431%);fill-opacity:1;" d="M 11.179688 25.015625 L 12.316406 25.667969 C 13.332031 24.417969 14.410156 23.289062 15.484375 22.160156 C 17.035156 20.609375 18.714844 19.195312 20.507812 17.933594 L 16.5625 15.675781 L 11.179688 18.769531 Z M 15.664062 27.632812 L 16.558594 28.109375 L 22 25.015625 L 22 21.566406 C 20.652344 22.542969 19.390625 23.636719 18.234375 24.835938 C 17.339844 25.726562 16.5 26.617188 15.664062 27.632812 Z M 15.664062 27.632812 "/>
<path style=" stroke:none;fill-rule:evenodd;fill:rgb(98.039216%,64.313725%,18.431373%);fill-opacity:1;" d="M 16.5625 34.355469 L 21.585938 37.210938 L 27.386719 33.878906 L 27.386719 28.109375 L 22.003906 25.015625 L 16.5625 28.109375 Z M 16.5625 34.355469 "/>
<path style=" stroke:none;fill-rule:evenodd;fill:rgb(52.156863%,22.745098%,58.823529%);fill-opacity:1;" d="M 60.09375 90.453125 L 59.914062 90.335938 L 54.472656 93.425781 L 54.472656 93.664062 Z M 60.09375 90.453125 "/>
<path style=" stroke:none;fill-rule:evenodd;fill:rgb(80%,19.215686%,57.254902%);fill-opacity:1;" d="M 43.652344 80.996094 L 49.089844 84.148438 L 54.472656 80.996094 L 54.472656 74.808594 L 49.511719 71.890625 L 43.652344 75.285156 Z M 43.652344 80.996094 "/>
<path style=" stroke:none;fill-rule:evenodd;fill:rgb(60.784314%,22.352941%,58.431373%);fill-opacity:1;" d="M 49.089844 90.335938 L 54.472656 93.425781 L 59.914062 90.335938 L 59.914062 85.867188 C 56.476562 87.429688 52.832031 88.492188 49.089844 89.027344 Z M 57.519531 82.777344 L 54.472656 80.996094 L 49.089844 84.148438 L 49.089844 85.15625 C 52.019531 84.683594 54.890625 83.910156 57.519531 82.777344 Z M 57.519531 82.777344 "/>
<path style=" stroke:none;fill-rule:evenodd;fill:rgb(100%,81.176471%,16.078431%);fill-opacity:1;" d="M 16.5625 15.675781 L 20.511719 17.933594 C 22.664062 16.398438 24.96875 15.082031 27.386719 14.007812 L 27.386719 9.429688 L 27.265625 9.367188 L 16.5625 15.496094 Z M 16.5625 15.675781 "/>
<path style=" stroke:none;fill-rule:evenodd;fill:rgb(85.098039%,54.117647%,14.901961%);fill-opacity:1;" d="M 22.003906 25.015625 L 27.386719 28.109375 L 32.828125 25.015625 L 32.828125 18.765625 L 29.894531 17.105469 C 27.023438 18.238281 24.390625 19.78125 21.996094 21.570312 Z M 22.003906 25.015625 "/>
<path style=" stroke:none;fill-rule:evenodd;fill:rgb(56.078431%,30.980392%,62.352941%);fill-opacity:1;" d="M 59.914062 90.335938 L 60.089844 90.453125 L 70.734375 84.328125 L 70.734375 84.148438 L 66.785156 81.886719 C 64.628906 83.433594 62.324219 84.765625 59.910156 85.871094 Z M 59.914062 90.335938 "/>
<path style=" stroke:none;fill-rule:evenodd;fill:rgb(95.294118%,44.313725%,19.607843%);fill-opacity:1;" d="M 37.851562 27.867188 L 32.828125 25.015625 L 27.386719 28.109375 L 27.386719 33.878906 Z M 37.851562 27.867188 "/>
<path style=" stroke:none;fill-rule:evenodd;fill:rgb(82.352941%,29.411765%,60.784314%);fill-opacity:1;" d="M 49.511719 71.890625 L 54.472656 74.808594 L 59.914062 71.652344 L 59.914062 65.941406 Z M 49.511719 71.890625 "/>
<path style=" stroke:none;fill-rule:evenodd;fill:rgb(69.803922%,38.823529%,65.490196%);fill-opacity:1;" d="M 54.472656 80.996094 L 57.519531 82.777344 C 60.304688 81.605469 62.921875 80.066406 65.292969 78.199219 L 65.292969 74.808594 L 59.914062 71.652344 L 54.46875 74.808594 Z M 54.472656 80.996094 "/>
<path style=" stroke:none;fill-rule:evenodd;fill:rgb(100%,81.176471%,16.078431%);fill-opacity:1;" d="M 27.265625 9.367188 L 27.386719 9.429688 L 32.828125 6.332031 L 32.828125 6.15625 Z M 27.265625 9.367188 "/>
<path style=" stroke:none;fill-rule:evenodd;fill:rgb(98.039216%,64.313725%,18.431373%);fill-opacity:1;" d="M 29.894531 17.105469 L 32.824219 18.769531 L 37.1875 16.332031 L 37.1875 14.960938 L 37.425781 14.902344 C 34.839844 15.355469 32.316406 16.09375 29.894531 17.105469 Z M 37.1875 8.835938 L 32.828125 6.332031 L 27.382812 9.429688 L 27.382812 14.007812 C 30.519531 12.636719 33.8125 11.65625 37.1875 11.09375 Z M 37.1875 8.835938 "/>
<path style=" stroke:none;fill-rule:evenodd;fill:rgb(41.960784%,16.078431%,47.843137%);fill-opacity:1;" d="M 66.789062 81.886719 L 70.738281 84.148438 L 76.179688 80.996094 L 76.179688 76.058594 L 69.660156 72.308594 L 65.292969 74.808594 L 65.292969 78.199219 C 66.011719 77.722656 66.609375 77.1875 67.269531 76.652344 L 70.734375 78.613281 C 69.488281 79.785156 68.171875 80.878906 66.785156 81.886719 Z M 66.789062 81.886719 "/>
<path style=" stroke:none;fill-rule:evenodd;fill:rgb(47.058824%,16.470588%,56.078431%);fill-opacity:1;" d="M 76.355469 81.113281 L 76.175781 80.996094 L 70.734375 84.148438 L 70.734375 84.324219 Z M 76.355469 81.113281 "/>
<path style=" stroke:none;fill-rule:evenodd;fill:rgb(95.294118%,44.313725%,19.607843%);fill-opacity:1;" d="M 32.828125 25.015625 L 37.851562 27.867188 L 43.53125 24.65625 L 43.652344 24.714844 L 43.652344 20.015625 L 37.191406 16.328125 L 32.828125 18.765625 Z M 32.828125 25.015625 "/>
<path style=" stroke:none;fill-rule:evenodd;fill:rgb(60.784314%,22.352941%,58.431373%);fill-opacity:1;" d="M 59.914062 71.652344 L 65.292969 74.808594 L 69.660156 72.308594 L 69.660156 64.8125 L 65.59375 62.492188 L 65.59375 62.671875 L 59.914062 65.941406 Z M 59.914062 71.652344 "/>
<path style=" stroke:none;fill-rule:evenodd;fill:rgb(98.039216%,64.313725%,18.431373%);fill-opacity:1;" d="M 32.828125 6.332031 L 37.191406 8.832031 L 43.652344 5.082031 L 43.652344 0.148438 L 43.53125 0.0273438 L 32.828125 6.15625 Z M 32.828125 6.332031 "/>
<path style=" stroke:none;fill-rule:evenodd;fill:rgb(94.509804%,34.901961%,20%);fill-opacity:1;" d="M 43.652344 24.714844 L 43.652344 20.015625 L 50.167969 16.328125 L 54.472656 18.765625 L 54.472656 25.015625 L 49.328125 27.988281 Z M 43.652344 24.714844 "/>
<path style=" stroke:none;fill-rule:evenodd;fill:rgb(47.058824%,16.470588%,56.078431%);fill-opacity:1;" d="M 76.175781 80.996094 L 76.355469 81.113281 L 87 74.984375 L 87 74.808594 L 82.632812 72.308594 L 76.175781 76.058594 Z M 76.175781 80.996094 "/>
<path style=" stroke:none;fill-rule:evenodd;fill:rgb(62.745098%,8.627451%,39.215686%);fill-opacity:1;" d="M 65.59375 55.949219 L 70.734375 53.035156 L 70.734375 46.789062 L 65.59375 43.8125 Z M 65.59375 55.949219 "/>
<path style=" stroke:none;fill-rule:evenodd;fill:rgb(75.294118%,12.54902%,14.901961%);fill-opacity:1;" d="M 59.914062 34.054688 L 59.914062 28.109375 L 54.472656 25.015625 L 49.328125 27.988281 Z M 59.914062 34.054688 "/>
<path style=" stroke:none;fill-rule:evenodd;fill:rgb(60.784314%,22.352941%,58.431373%);fill-opacity:1;" d="M 65.59375 62.492188 L 69.660156 64.8125 L 76.175781 61.125 L 76.175781 56.125 L 70.734375 53.035156 L 65.59375 55.949219 Z M 65.59375 62.492188 "/>
<path style=" stroke:none;fill-rule:evenodd;fill:rgb(94.509804%,34.901961%,20%);fill-opacity:1;" d="M 50.167969 8.832031 L 54.472656 6.332031 L 59.914062 9.429688 L 59.914062 14.128906 C 58.289062 13.390625 56.609375 12.773438 54.890625 12.28125 L 54.890625 16.269531 C 55.726562 16.511719 56.546875 16.8125 57.347656 17.160156 L 54.476562 18.765625 L 50.167969 16.328125 Z M 50.167969 8.832031 "/>
<path style=" stroke:none;fill-rule:evenodd;fill:rgb(56.470588%,31.764706%,62.745098%);fill-opacity:1;" d="M 76.894531 62.726562 C 77.007812 62.542969 77.089844 62.34375 77.132812 62.132812 C 77.089844 62.34375 77.007812 62.542969 76.894531 62.726562 Z M 77.253906 61.894531 C 78.109375 59.488281 78.691406 56.992188 78.988281 54.457031 L 76.175781 56.121094 L 76.175781 61.121094 L 77.3125 61.777344 Z M 82.632812 64.808594 L 87 62.308594 L 87 56.125 L 82.929688 53.808594 C 82.585938 57.226562 81.800781 60.585938 80.597656 63.804688 L 80.660156 63.683594 Z M 82.632812 64.808594 "/>
<path style=" stroke:none;fill-rule:evenodd;fill:rgb(69.019608%,10.588235%,29.019608%);fill-opacity:1;" d="M 65.535156 37.328125 L 70.734375 34.355469 L 70.734375 28.109375 L 65.292969 25.015625 L 59.914062 28.109375 L 59.914062 34.054688 Z M 65.535156 37.328125 "/>
<path style=" stroke:none;fill-rule:evenodd;fill:rgb(77.254902%,27.45098%,15.294118%);fill-opacity:1;" d="M 50.167969 8.832031 L 54.472656 6.332031 L 43.652344 0.148438 L 43.652344 5.082031 Z M 50.167969 8.832031 "/>
<path style=" stroke:none;fill-rule:evenodd;fill:rgb(64.313725%,9.019608%,40.784314%);fill-opacity:1;" d="M 65.59375 43.8125 L 70.734375 46.789062 L 76.175781 43.695312 L 76.175781 37.449219 L 70.734375 34.355469 L 65.535156 37.328125 L 65.59375 37.328125 Z M 65.59375 43.8125 "/>
<path style=" stroke:none;fill-rule:evenodd;fill:rgb(93.72549%,21.960784%,22.352941%);fill-opacity:1;" d="M 54.472656 25.015625 L 59.914062 28.109375 L 65.292969 25.015625 L 65.292969 21.800781 C 62.875 19.890625 60.199219 18.332031 57.34375 17.160156 L 54.472656 18.765625 Z M 54.472656 25.015625 "/>
<path style=" stroke:none;fill-rule:evenodd;fill:rgb(60.784314%,22.352941%,58.431373%);fill-opacity:1;" d="M 70.734375 53.035156 L 76.175781 56.125 L 78.988281 54.460938 C 79.179688 52.980469 79.28125 51.488281 79.285156 49.996094 C 79.277344 48.425781 79.179688 46.855469 78.988281 45.296875 L 76.175781 43.691406 L 70.734375 46.785156 Z M 70.734375 53.035156 "/>
<path style=" stroke:none;fill-rule:evenodd;fill:rgb(41.960784%,16.078431%,47.843137%);fill-opacity:1;" d="M 82.929688 53.808594 L 86.996094 56.125 L 86.996094 43.691406 L 82.871094 46.011719 C 83.039062 47.332031 83.121094 48.664062 83.109375 49.996094 C 83.109375 51.304688 83.050781 52.554688 82.929688 53.804688 Z M 82.929688 53.808594 "/>
<path style=" stroke:none;fill-rule:evenodd;fill:rgb(88.627451%,14.509804%,45.490196%);fill-opacity:1;" d="M 65.292969 25.015625 L 70.734375 28.109375 L 71.394531 27.75 C 70.601562 26.722656 69.742188 25.75 68.824219 24.835938 C 67.703125 23.761719 66.527344 22.746094 65.292969 21.800781 Z M 74.742188 25.789062 L 76.175781 25.015625 L 76.175781 18.765625 L 70.734375 15.675781 L 66.667969 18.050781 C 68.390625 19.289062 70.011719 20.660156 71.511719 22.160156 C 72.648438 23.3125 73.726562 24.523438 74.738281 25.789062 Z M 74.742188 25.789062 "/>
<path style=" stroke:none;fill-rule:evenodd;fill:rgb(80%,19.215686%,57.254902%);fill-opacity:1;" d="M 70.734375 34.355469 L 76.175781 37.449219 L 76.835938 37.089844 C 75.535156 33.707031 73.695312 30.554688 71.390625 27.75 L 70.734375 28.109375 Z M 80.183594 35.128906 L 81.558594 34.355469 L 81.558594 28.109375 L 76.175781 25.015625 L 74.742188 25.789062 C 76.964844 28.644531 78.796875 31.789062 80.183594 35.128906 Z M 80.183594 35.128906 "/>
<path style=" stroke:none;fill-rule:evenodd;fill:rgb(93.72549%,21.960784%,22.352941%);fill-opacity:1;" d="M 66.671875 18.050781 L 70.734375 15.675781 L 59.914062 9.429688 L 59.914062 14.128906 C 62.292969 15.203125 64.558594 16.519531 66.671875 18.050781 Z M 66.671875 18.050781 "/>
<path style=" stroke:none;fill-rule:evenodd;fill:rgb(69.803922%,38.823529%,65.490196%);fill-opacity:1;" d="M 76.175781 43.691406 L 78.988281 45.296875 C 78.589844 42.484375 77.867188 39.730469 76.832031 37.085938 L 76.175781 37.445312 Z M 82.875 46.011719 L 87 43.691406 L 87 37.449219 L 81.558594 34.355469 L 80.179688 35.128906 C 81.558594 38.578125 82.511719 42.207031 82.871094 46.015625 Z M 82.875 46.011719 "/>
<path style=" stroke:none;fill-rule:evenodd;fill:rgb(81.960784%,28.627451%,60.392157%);fill-opacity:1;" d="M 76.175781 25.015625 L 81.558594 28.109375 L 87 25.015625 L 76.175781 18.765625 Z M 76.175781 25.015625 "/>
<path style=" stroke:none;fill-rule:evenodd;fill:rgb(60.784314%,22.352941%,58.431373%);fill-opacity:1;" d="M 81.558594 34.355469 L 87 37.449219 L 87 25.015625 L 81.558594 28.109375 Z M 81.558594 34.355469 "/>
<path style=" stroke:none;fill-rule:evenodd;fill:rgb(52.156863%,27.058824%,60.392157%);fill-opacity:1;" d="M 82.632812 72.308594 L 87 74.808594 L 87 62.3125 L 82.632812 64.8125 Z M 82.632812 72.308594 "/>
<path style=" stroke:none;fill-rule:evenodd;fill:rgb(94.509804%,34.901961%,20%);fill-opacity:1;" d="M 32.289062 55.828125 L 32.828125 56.125 L 32.828125 56.722656 L 32.289062 56.421875 Z M 32.289062 55.828125 "/>
<path style=" stroke:none;fill-rule:evenodd;fill:rgb(94.509804%,34.901961%,20%);fill-opacity:1;" d="M 32.289062 43.992188 L 32.828125 43.695312 L 38.269531 46.789062 L 38.269531 53.035156 L 32.828125 56.125 L 32.289062 55.828125 Z M 32.289062 43.992188 "/>
<path style=" stroke:none;fill-rule:evenodd;fill:rgb(88.627451%,14.509804%,45.490196%);fill-opacity:1;" d="M 44.070312 62.550781 L 43.652344 62.3125 L 43.113281 62.671875 L 43.53125 62.910156 Z M 44.070312 62.550781 "/>
<path style=" stroke:none;fill-rule:evenodd;fill:rgb(93.72549%,21.960784%,22.352941%);fill-opacity:1;" d="M 43.113281 62.671875 L 43.652344 62.3125 L 43.652344 56.125 L 38.269531 53.035156 L 32.828125 56.125 L 32.828125 56.722656 Z M 43.113281 62.671875 "/>
<path style=" stroke:none;fill-rule:evenodd;fill:rgb(93.333333%,24.705882%,54.117647%);fill-opacity:1;" d="M 43.652344 62.3125 L 44.070312 62.550781 L 54.472656 56.542969 L 54.472656 56.125 L 49.089844 53.035156 L 43.652344 56.125 Z M 43.652344 62.3125 "/>
<path style=" stroke:none;fill-rule:evenodd;fill:rgb(93.72549%,21.960784%,22.352941%);fill-opacity:1;" d="M 38.269531 53.035156 L 43.652344 56.125 L 49.089844 53.035156 L 49.089844 46.789062 L 43.652344 43.695312 L 38.269531 46.789062 Z M 38.269531 53.035156 "/>
<path style=" stroke:none;fill-rule:evenodd;fill:rgb(88.627451%,14.509804%,45.490196%);fill-opacity:1;" d="M 49.089844 53.035156 L 54.472656 56.125 L 54.710938 56.007812 L 54.710938 43.8125 L 54.472656 43.695312 L 49.089844 46.789062 Z M 49.089844 53.035156 "/>
<path style=" stroke:none;fill-rule:evenodd;fill:rgb(80%,19.215686%,57.254902%);fill-opacity:1;" d="M 54.710938 56.007812 L 54.472656 56.125 L 54.472656 56.542969 L 54.710938 56.421875 Z M 54.710938 56.007812 "/>
<path style=" stroke:none;fill-rule:evenodd;fill:rgb(95.294118%,44.313725%,19.607843%);fill-opacity:1;" d="M 32.289062 43.992188 L 32.828125 43.695312 L 32.828125 43.277344 L 32.289062 43.574219 Z M 32.289062 43.992188 "/>
<path style=" stroke:none;fill-rule:evenodd;fill:rgb(94.509804%,34.901961%,20%);fill-opacity:1;" d="M 32.828125 43.695312 L 32.828125 43.277344 L 43.289062 37.269531 L 43.652344 37.449219 L 43.652344 43.695312 L 38.269531 46.789062 Z M 32.828125 43.695312 "/>
<path style=" stroke:none;fill-rule:evenodd;fill:rgb(95.686275%,50.196078%,37.254902%);fill-opacity:1;" d="M 43.890625 37.328125 L 43.652344 37.449219 L 43.289062 37.269531 L 43.53125 37.148438 Z M 43.890625 37.328125 "/>
<path style=" stroke:none;fill-rule:evenodd;fill:rgb(93.72549%,21.960784%,22.352941%);fill-opacity:1;" d="M 43.652344 43.695312 L 49.089844 46.789062 L 54.472656 43.695312 L 54.472656 43.457031 L 43.890625 37.328125 L 43.652344 37.449219 Z M 43.652344 43.695312 "/>
<path style=" stroke:none;fill-rule:evenodd;fill:rgb(88.627451%,14.509804%,45.490196%);fill-opacity:1;" d="M 54.472656 43.695312 L 54.710938 43.8125 L 54.710938 43.574219 L 54.472656 43.457031 Z M 54.472656 43.695312 "/>
<path style=" stroke:none;fill-rule:evenodd;fill:rgb(95.294118%,44.313725%,19.607843%);fill-opacity:1;" d="M 39.941406 14.722656 L 43.652344 16.863281 L 47.355469 14.722656 L 47.355469 10.4375 L 43.652344 8.296875 L 39.941406 10.4375 Z M 39.941406 14.722656 "/>
<path style=" stroke:none;fill-rule:evenodd;fill:rgb(33.333333%,13.333333%,38.823529%);fill-opacity:1;" d="M 72.410156 70.703125 L 76.175781 72.84375 L 79.882812 70.703125 L 79.882812 66.417969 L 76.175781 64.277344 L 72.410156 66.417969 Z M 72.410156 70.703125 "/>
<path style=" stroke:none;fill-rule:evenodd;fill:rgb(95.294118%,44.313725%,19.607843%);fill-opacity:1;" d="M 7.472656 70.703125 L 11.179688 72.84375 L 14.886719 70.703125 L 14.886719 66.417969 L 11.179688 64.277344 L 7.472656 66.417969 Z M 7.472656 70.703125 "/>
</g>
</svg>
