<?xml version="1.0" encoding="UTF-8"?>
<svg xmlns="http://www.w3.org/2000/svg" xmlns:xlink="http://www.w3.org/1999/xlink" width="13px" height="11px" viewBox="0 0 12 11" version="1.1">
<g id="surface1">
<path style=" stroke:none;fill-rule:nonzero;fill:rgb(89.803922%,43.921569%,0%);fill-opacity:1;" d="M 8.960938 5.5 L 11.996094 9.03125 C 11.664062 9.394531 11.195312 9.621094 10.683594 9.621094 C 10.140625 9.621094 9.664062 9.371094 9.328125 8.984375 L 7.648438 7.03125 L 6.335938 5.5 L 7.648438 3.980469 L 9.328125 2.027344 C 9.660156 1.640625 10.140625 1.390625 10.683594 1.390625 C 11.195312 1.390625 11.664062 1.617188 11.996094 1.96875 Z M 8.960938 5.5 "/>
<path style=" stroke:none;fill-rule:nonzero;fill:rgb(89.803922%,43.921569%,0%);fill-opacity:1;" d="M 3.039062 5.5 L 0.00390625 9.03125 C 0.335938 9.394531 0.804688 9.621094 1.316406 9.621094 C 1.859375 9.621094 2.335938 9.371094 2.671875 8.984375 L 4.351562 7.03125 L 5.664062 5.5 L 4.351562 3.980469 L 2.671875 2.027344 C 2.339844 1.640625 1.859375 1.390625 1.316406 1.390625 C 0.804688 1.390625 0.335938 1.617188 0.00390625 1.96875 Z M 3.039062 5.5 "/>
<path style=" stroke:none;fill-rule:nonzero;fill:rgb(0%,0%,0%);fill-opacity:1;" d="M 7.195312 7.25 L 6 5.855469 L 4.800781 7.25 L 2.027344 10.472656 C 2.332031 10.796875 2.757812 11 3.226562 11 C 3.722656 11 4.140625 10.785156 4.457031 10.417969 L 6 8.636719 L 7.53125 10.417969 C 7.835938 10.773438 8.273438 11 8.769531 11 C 9.238281 11 9.664062 10.796875 9.96875 10.472656 Z M 7.195312 7.25 "/>
<path style=" stroke:none;fill-rule:nonzero;fill:rgb(0%,0%,0%);fill-opacity:1;" d="M 7.195312 3.75 L 6 5.144531 L 4.800781 3.75 L 2.027344 0.527344 C 2.332031 0.203125 2.757812 0 3.226562 0 C 3.722656 0 4.140625 0.214844 4.457031 0.578125 L 6 2.363281 L 7.53125 0.578125 C 7.835938 0.226562 8.273438 0 8.769531 0 C 9.238281 0 9.664062 0.203125 9.96875 0.527344 Z M 7.195312 3.75 "/>
</g>
</svg>
