<?xml version="1.0" encoding="UTF-8"?>
<svg xmlns="http://www.w3.org/2000/svg" xmlns:xlink="http://www.w3.org/1999/xlink" width="173px" height="150px" viewBox="0 0 147 128" version="1.1">
<g id="surface1">
<path style=" stroke:none;fill-rule:nonzero;fill:rgb(89.803922%,43.921569%,0%);fill-opacity:1;" d="M 109.773438 64.003906 L 146.976562 105.089844 C 142.886719 109.335938 137.164062 111.9375 130.894531 111.9375 C 124.21875 111.9375 118.359375 109.0625 114.273438 104.539062 L 93.695312 81.804688 L 77.617188 64 L 93.695312 46.328125 L 114.273438 23.59375 C 118.359375 19.078125 124.21875 16.199219 130.894531 16.199219 C 137.164062 16.199219 142.886719 18.800781 146.976562 22.90625 L 109.773438 63.996094 Z M 109.773438 64.003906 "/>
<path style=" stroke:none;fill-rule:nonzero;fill:rgb(89.803922%,43.921569%,0%);fill-opacity:1;" d="M 37.226562 64.003906 L 0.0234375 105.089844 C 4.113281 109.335938 9.835938 111.9375 16.105469 111.9375 C 22.78125 111.9375 28.640625 109.0625 32.726562 104.539062 L 53.304688 81.804688 L 69.382812 64 L 53.304688 46.328125 L 32.726562 23.59375 C 28.640625 19.078125 22.78125 16.199219 16.105469 16.199219 C 9.835938 16.199219 4.113281 18.800781 0.0234375 22.90625 L 37.226562 63.996094 Z M 37.226562 64.003906 "/>
<path style=" stroke:none;fill-rule:nonzero;fill:rgb(0%,0%,0%);fill-opacity:1;" d="M 88.15625 84.371094 L 73.484375 68.121094 L 58.804688 84.371094 L 24.851562 121.875 C 28.582031 125.625 33.804688 128 39.527344 128 C 45.621094 128 50.722656 125.5 54.578125 121.25 L 73.484375 100.5 L 92.261719 121.25 C 95.992188 125.375 101.339844 128 107.433594 128 C 113.15625 128 118.382812 125.625 122.113281 121.875 Z M 88.15625 84.371094 "/>
<path style=" stroke:none;fill-rule:nonzero;fill:rgb(0%,0%,0%);fill-opacity:1;" d="M 88.15625 43.628906 L 73.484375 59.882812 L 58.804688 43.628906 L 24.851562 6.125 C 28.582031 2.375 33.804688 0 39.527344 0 C 45.621094 0 50.722656 2.5 54.578125 6.75 L 73.484375 27.5 L 92.261719 6.75 C 95.992188 2.625 101.339844 0 107.433594 0 C 113.15625 0 118.382812 2.375 122.113281 6.125 Z M 88.15625 43.628906 "/>
</g>
</svg>
