<?xml version="1.0" encoding="UTF-8"?>
<svg xmlns="http://www.w3.org/2000/svg" xmlns:xlink="http://www.w3.org/1999/xlink" width="173px" height="150px" viewBox="0 0 173 150" version="1.1">
<g id="surface1">
<path style=" stroke:none;fill-rule:nonzero;fill:rgb(89.803922%,43.921569%,0%);fill-opacity:1;" d="M 129.191406 75.003906 L 172.972656 123.152344 C 168.160156 128.128906 161.425781 131.175781 154.046875 131.175781 C 146.1875 131.175781 139.296875 127.808594 134.484375 122.507812 L 110.269531 95.867188 L 91.347656 75 L 110.269531 54.292969 L 134.484375 27.648438 C 139.292969 22.355469 146.1875 18.980469 154.046875 18.980469 C 161.421875 18.980469 168.160156 22.03125 172.972656 26.84375 L 129.191406 74.992188 Z M 129.191406 75.003906 "/>
<path style=" stroke:none;fill-rule:nonzero;fill:rgb(89.803922%,43.921569%,0%);fill-opacity:1;" d="M 43.808594 75.003906 L 0.0273438 123.152344 C 4.839844 128.128906 11.574219 131.175781 18.953125 131.175781 C 26.8125 131.175781 33.703125 127.808594 38.515625 122.507812 L 62.730469 95.867188 L 81.652344 75 L 62.730469 54.292969 L 38.515625 27.648438 C 33.707031 22.355469 26.8125 18.980469 18.953125 18.980469 C 11.578125 18.980469 4.839844 22.03125 0.0273438 26.84375 L 43.808594 74.992188 Z M 43.808594 75.003906 "/>
<path style=" stroke:none;fill-rule:nonzero;fill:rgb(0%,0%,0%);fill-opacity:1;" d="M 103.75 98.875 L 86.480469 79.828125 L 69.207031 98.875 L 29.246094 142.820312 C 33.636719 147.214844 39.785156 150 46.515625 150 C 53.691406 150 59.691406 147.070312 64.230469 142.089844 L 86.480469 117.773438 L 108.582031 142.089844 C 112.972656 146.921875 119.265625 150 126.4375 150 C 133.171875 150 139.320312 147.214844 143.710938 142.820312 Z M 103.75 98.875 "/>
<path style=" stroke:none;fill-rule:nonzero;fill:rgb(0%,0%,0%);fill-opacity:1;" d="M 103.75 51.128906 L 86.480469 70.175781 L 69.207031 51.128906 L 29.246094 7.179688 C 33.636719 2.78125 39.785156 0 46.515625 0 C 53.691406 0 59.691406 2.929688 64.230469 7.910156 L 86.480469 32.226562 L 108.582031 7.910156 C 112.972656 3.078125 119.265625 0 126.4375 0 C 133.171875 0 139.320312 2.78125 143.710938 7.179688 L 103.75 51.125 Z M 103.75 51.128906 "/>
</g>
</svg>
